<svg version="1.1" id="Layer_1" xmlns="http://www.w3.org/2000/svg" xmlns:xlink="http://www.w3.org/1999/xlink" x="0px" y="0px"
	 width="100%" viewBox="0 0 92 152" enable-background="new 0 0 92 152" xml:space="preserve">
<path fill="#242424" opacity="1.000000" stroke="none" 
	d="
M1.000000,55.000000 
	C1.000000,37.042664 1.000000,19.085323 1.000000,1.063993 
	C31.551210,1.063993 62.102585,1.063993 93.000000,1.063993 
	C93.000000,13.685464 93.000000,26.374073 92.694183,39.530106 
	C91.980637,39.991905 91.572914,39.986290 91.041862,39.698441 
	C90.256302,38.651051 89.594070,37.885891 88.952042,36.651688 
	C88.972260,32.595486 88.972260,29.008318 88.972260,25.368464 
	C86.525803,25.121021 84.881691,24.954731 83.158554,24.384750 
	C82.928772,22.418350 82.778015,20.855635 82.627701,19.297516 
	C80.458839,19.083378 78.835297,18.923080 77.145744,18.351885 
	C77.939613,12.592551 74.515594,12.695214 70.418999,13.037699 
	C54.348610,13.007276 38.738419,13.007276 23.053465,13.007276 
	C23.053465,15.395487 23.053465,17.222996 22.609467,19.028025 
	C20.469767,19.005545 18.774069,19.005545 17.050468,19.005545 
	C17.050468,21.493967 17.050468,23.273716 16.600494,25.029650 
	C14.564206,25.005835 12.977889,25.005835 11.045891,25.005835 
	C11.045891,29.271070 11.045891,33.160122 10.595448,37.027264 
	C8.554457,37.005352 6.963907,37.005352 5.045863,37.005352 
	C5.045863,43.287128 5.045863,49.168182 4.641753,55.027306 
	C3.158428,55.003582 2.079214,55.001789 1.000000,55.000000 
z"/>
<path fill="#242424" opacity="1.000000" stroke="none" 
	d="
M93.000000,118.000000 
	C93.000000,129.635651 93.000000,141.271317 93.000000,152.953491 
	C62.445915,152.953491 31.891747,152.953491 1.000000,152.953491 
	C1.000000,140.647827 1.000000,128.292572 1.396112,115.468521 
	C2.847932,114.974983 3.903641,114.950249 5.377318,114.950882 
	C7.459563,115.047424 9.123840,115.118599 10.859099,115.595642 
	C11.076651,117.570229 11.223219,119.138947 11.400242,121.033623 
	C13.567092,121.033623 15.202198,121.033623 16.909895,121.494690 
	C16.982485,127.607964 16.982485,133.260162 16.982485,138.950195 
	C19.454916,138.950195 21.250841,138.950195 23.025934,139.400482 
	C23.005100,141.457245 23.005100,143.063736 23.005100,144.940918 
	C27.269970,144.940918 31.075163,144.940918 35.314781,144.957397 
	C40.729698,146.034607 41.325905,142.945892 41.629135,139.134445 
	C46.902954,139.807007 47.414738,136.867264 47.446926,133.091492 
	C49.595558,132.996567 51.319466,132.975113 53.024090,133.396835 
	C53.004803,135.533920 53.004803,137.227829 53.004803,138.953140 
	C55.493214,138.953140 57.271473,138.953140 59.027580,139.402756 
	C59.005432,141.458542 59.005432,143.064728 59.005432,144.940903 
	C63.271393,144.940903 67.075890,144.940903 71.314804,144.957397 
	C76.729675,146.034561 77.325912,142.945877 77.638794,139.133713 
	C81.894302,139.539902 83.446854,137.991791 83.064980,134.025803 
	C82.749733,130.751770 82.818695,127.405212 83.118614,124.127510 
	C83.217957,123.041824 84.362564,121.732841 85.385208,121.117134 
	C87.498833,119.844582 89.851524,118.969093 92.329544,117.946060 
	C92.553207,117.961823 93.000000,118.000000 93.000000,118.000000 
z"/>
<path fill="#E5E5F5" opacity="1.000000" stroke="none" 
	d="
M93.000000,55.000000 
	C93.000000,69.687561 93.000000,84.375122 92.632233,99.572708 
	C89.735535,102.569458 86.752609,103.648209 83.128090,102.578362 
	C82.973991,100.427444 82.905037,98.699440 82.904221,96.552689 
	C83.020805,94.438965 83.069260,92.743988 83.555878,91.028305 
	C85.579643,90.929733 87.165237,90.851868 89.048470,90.759384 
	C89.048470,78.557632 89.048470,66.754532 89.024780,54.975780 
	C89.001083,55.000126 88.954140,55.049244 89.358276,55.027840 
	C90.841606,55.004288 91.920807,55.002144 93.000000,55.000000 
z"/>
<path fill="#E5E5F5" opacity="1.000000" stroke="none" 
	d="
M1.000000,55.468658 
	C2.079214,55.001789 3.158428,55.003582 4.617762,55.002213 
	C4.997881,54.999054 4.949432,54.949318 4.970798,55.420792 
	C4.992164,67.493271 4.992164,79.094269 4.992164,91.049103 
	C7.279697,91.049103 9.081051,91.049103 10.931314,91.470261 
	C11.041456,93.584816 11.102691,95.278214 11.098689,97.387474 
	C11.010285,99.484146 10.987117,101.164970 10.547667,102.911728 
	C8.451850,102.964828 6.772316,102.951996 4.958388,102.631271 
	C3.549331,101.548927 2.274668,100.774460 1.000002,100.000000 
	C1.000000,85.312439 1.000000,70.624878 1.000000,55.468658 
z"/>
<path fill="#FFC4A7" opacity="1.000000" stroke="none" 
	d="
M83.213242,103.001274 
	C86.752609,103.648209 89.735535,102.569458 92.632233,100.041367 
	C93.000000,105.688042 93.000000,111.376083 93.000000,117.532059 
	C93.000000,118.000000 92.553207,117.961823 92.187065,117.661087 
	C90.859604,116.612206 89.898293,115.864067 88.954865,114.682175 
	C89.988647,109.233902 87.021729,108.589424 83.071121,108.956879 
	C82.994194,108.973877 82.858765,109.054443 82.916466,108.624969 
	C82.923233,106.473618 82.872307,104.751747 82.921104,103.046837 
	C83.020828,103.063805 83.213242,103.001274 83.213242,103.001274 
z"/>
<path fill="#7C3135" opacity="1.000000" stroke="none" 
	d="
M1.000002,100.466110 
	C2.274668,100.774460 3.549331,101.548927 4.927279,103.092529 
	C5.006826,107.549614 4.983088,111.237564 4.959350,114.925507 
	C3.903641,114.950249 2.847932,114.974983 1.396112,114.999863 
	C1.000000,110.310745 1.000000,105.621490 1.000002,100.466110 
z"/>
<path fill="#333346" opacity="1.000000" stroke="none" 
	d="
M93.000000,54.533882 
	C91.920807,55.002144 90.841606,55.004288 89.378204,54.565010 
	C89.717728,49.409286 90.441460,44.694977 91.165192,39.980671 
	C91.572914,39.986290 91.980637,39.991905 92.694183,39.998764 
	C93.000000,44.689255 93.000000,49.378513 93.000000,54.533882 
z"/>
<path fill="#E5E5F5" opacity="1.000000" stroke="none" 
	d="
M23.053465,19.050505 
	C23.053465,17.222996 23.053465,15.395487 23.053465,13.007276 
	C38.738419,13.007276 54.348610,13.007276 70.470703,13.461891 
	C70.984116,15.628369 70.985641,17.340231 70.562698,19.030195 
	C68.430443,19.060818 66.722656,19.113337 64.558144,19.097466 
	C60.412201,19.073595 56.722988,19.118114 52.566730,19.098703 
	C42.386848,19.010260 32.674007,18.985748 22.984135,18.983662 
	C23.007107,19.006086 23.053465,19.050505 23.053465,19.050505 
z"/>
<path fill="#E5E5F5" opacity="1.000000" stroke="none" 
	d="
M91.041862,39.698441 
	C90.441460,44.694977 89.717728,49.409286 88.974060,54.586418 
	C88.954140,55.049244 89.001083,55.000126 88.576546,54.996239 
	C86.571564,54.992355 84.991112,54.992355 82.948036,54.992355 
	C82.948036,48.700260 82.948036,42.856468 83.376144,37.007256 
	C85.513443,37.041466 87.222633,37.081097 88.931831,37.120728 
	C89.594070,37.885891 90.256302,38.651051 91.041862,39.698441 
z"/>
<path fill="#E5E5F5" opacity="1.000000" stroke="none" 
	d="
M5.021873,55.024147 
	C5.045863,49.168182 5.045863,43.287128 5.045863,37.005352 
	C6.963907,37.005352 8.554457,37.005352 10.571451,37.002174 
	C10.997896,36.998997 10.949457,36.949245 10.970808,37.420235 
	C10.992159,43.546928 10.992159,49.202641 10.992159,54.949318 
	C8.535616,54.949318 6.742524,54.949318 4.949432,54.949318 
	C4.949432,54.949318 4.997881,54.999054 5.021873,55.024147 
z"/>
<path fill="#3D3D53" opacity="1.000000" stroke="none" 
	d="
M88.952042,36.651691 
	C87.222633,37.081097 85.513443,37.041466 83.397141,37.033245 
	C82.990044,37.064659 83.052528,37.040939 83.030045,36.579571 
	C82.970688,32.446575 82.933823,28.774952 82.981247,25.023678 
	C83.065544,24.944027 83.237579,24.788439 83.237579,24.788439 
	C84.881691,24.954731 86.525803,25.121021 88.972260,25.368464 
	C88.972260,29.008318 88.972260,32.595486 88.952042,36.651691 
z"/>
<path fill="#E5E5F5" opacity="1.000000" stroke="none" 
	d="
M11.021894,37.024086 
	C11.045891,33.160122 11.045891,29.271070 11.045891,25.005835 
	C12.977889,25.005835 14.564206,25.005835 16.578283,25.006470 
	C17.006044,25.007107 16.961170,24.961187 16.976309,25.395317 
	C17.048504,27.564268 17.105562,29.299089 17.095713,31.448254 
	C17.007284,33.540722 16.985762,35.218845 16.536720,36.940376 
	C14.389288,36.972267 12.669373,36.960758 10.949457,36.949245 
	C10.949457,36.949245 10.997896,36.998997 11.021894,37.024086 
z"/>
<path fill="#3D3D53" opacity="1.000000" stroke="none" 
	d="
M70.987167,19.052094 
	C70.985641,17.340231 70.984116,15.628369 70.930893,13.492315 
	C74.515594,12.695214 77.939613,12.592551 77.067947,18.437859 
	C77.056168,18.934732 76.896950,19.103327 76.475357,19.059052 
	C74.355515,18.992311 72.657272,18.969847 70.947136,18.978645 
	C70.935242,19.009907 70.987160,19.052094 70.987167,19.052094 
z"/>
<path fill="#E5E5F5" opacity="1.000000" stroke="none" 
	d="
M17.028255,25.030285 
	C17.050468,23.273716 17.050468,21.493967 17.050468,19.005545 
	C18.774069,19.005545 20.469767,19.005545 22.609467,19.028025 
	C23.053465,19.050505 23.007107,19.006086 22.999218,19.421503 
	C22.991329,21.499401 22.991329,23.161882 22.991329,24.961187 
	C20.453035,24.961187 18.707104,24.961187 16.961170,24.961187 
	C16.961170,24.961187 17.006044,25.007107 17.028255,25.030285 
z"/>
<path fill="#3D3D53" opacity="1.000000" stroke="none" 
	d="
M77.133957,18.848759 
	C78.835297,18.923080 80.458839,19.083378 82.627701,19.297516 
	C82.778015,20.855635 82.928772,22.418350 83.158554,24.384750 
	C83.237579,24.788439 83.065544,24.944027 82.559532,24.979416 
	C80.355400,24.992317 78.657288,24.969828 76.961830,24.991402 
	C76.964493,25.035467 77.052612,25.040972 77.030106,24.616669 
	C76.970718,22.496017 76.933830,20.799673 76.896950,19.103327 
	C76.896950,19.103327 77.056168,18.934732 77.133957,18.848759 
z"/>
<path fill="#333346" opacity="1.000000" stroke="none" 
	d="
M88.936974,115.115921 
	C89.898293,115.864067 90.859604,116.612206 91.963409,117.645325 
	C89.851524,118.969093 87.498833,119.844582 85.385208,121.117134 
	C84.362564,121.732841 83.217957,123.041824 83.118614,124.127510 
	C82.818695,127.405212 82.749733,130.751770 83.064980,134.025803 
	C83.446854,137.991791 81.894302,139.539902 77.558578,139.062561 
	C77.059959,139.050751 76.905762,138.905777 76.946869,138.444794 
	C76.984596,128.327820 76.981216,118.671822 77.398605,109.011559 
	C79.499176,109.023010 81.178970,109.038727 82.858765,109.054443 
	C82.858765,109.054443 82.994194,108.973877 83.011124,109.392685 
	C83.028061,111.422958 83.028061,113.034424 83.028061,114.809738 
	C85.332962,114.929169 87.134964,115.022545 88.936974,115.115921 
z"/>
<path fill="#E5E5F5" opacity="1.000000" stroke="none" 
	d="
M23.046768,138.950195 
	C21.250841,138.950195 19.454916,138.950195 16.982485,138.950195 
	C16.982485,133.260162 16.982485,127.607964 16.979477,121.072128 
	C16.946083,118.477859 16.915695,116.767235 16.923283,114.642487 
	C16.976526,112.559990 16.991795,110.891617 17.416775,109.134178 
	C19.506556,109.052612 21.186625,109.060112 22.922152,109.486847 
	C23.039753,111.594994 23.101896,113.283897 23.098530,115.401886 
	C23.076700,117.563004 23.120380,119.295021 23.095852,121.451935 
	C23.072710,123.595474 23.117779,125.314110 23.092106,127.450424 
	C23.065714,129.559128 23.110060,131.250137 23.092939,133.373291 
	C23.006760,135.551132 22.982044,137.296860 22.979797,139.019592 
	C23.002266,138.996613 23.046768,138.950195 23.046768,138.950195 
z"/>
<path fill="#3D3D53" opacity="1.000000" stroke="none" 
	d="
M5.377318,114.950882 
	C4.983088,111.237564 5.006826,107.549614 5.061673,103.400414 
	C6.772316,102.951996 8.451850,102.964828 10.529117,103.038940 
	C10.926849,103.100220 11.013421,103.342316 11.010035,103.748016 
	C11.015970,105.804924 11.025291,107.456116 11.020319,109.520935 
	C11.038379,111.588608 11.070732,113.242645 11.025148,114.970825 
	C10.947212,115.044968 10.788117,115.189781 10.788117,115.189774 
	C9.123840,115.118599 7.459563,115.047424 5.377318,114.950882 
z"/>
<path fill="#E5E5F5" opacity="1.000000" stroke="none" 
	d="
M53.043377,132.953659 
	C51.319466,132.975113 49.595558,132.996567 47.019352,133.019806 
	C44.432449,133.019012 42.697842,133.016403 40.978477,132.590179 
	C41.037415,130.466019 41.081112,128.765472 41.574875,127.036674 
	C45.641754,127.027306 49.258568,127.046173 52.927246,127.489288 
	C52.969849,129.625259 52.960587,131.336975 52.974438,133.025024 
	C52.997547,133.001358 53.043377,132.953659 53.043377,132.953659 
z"/>
<path fill="#E5E5F5" opacity="1.000000" stroke="none" 
	d="
M70.880379,144.940903 
	C67.075890,144.940903 63.271393,144.940903 59.005432,144.940903 
	C59.005432,143.064728 59.005432,141.458542 59.004372,139.425018 
	C59.003315,138.997665 58.957291,139.042572 59.421036,139.025589 
	C63.603958,139.019821 67.323135,139.031021 71.020584,139.020981 
	C70.998856,138.999741 70.955070,138.957581 70.974594,139.385239 
	C70.956200,141.522232 70.918289,143.231567 70.880379,144.940903 
z"/>
<path fill="#E5E5F5" opacity="1.000000" stroke="none" 
	d="
M34.880356,144.940918 
	C31.075163,144.940918 27.269970,144.940918 23.005100,144.940918 
	C23.005100,143.063736 23.005100,141.457245 23.025934,139.400482 
	C23.046768,138.950195 23.002266,138.996613 23.443804,139.002609 
	C27.604563,138.999725 31.323782,138.990860 35.024315,139.407883 
	C34.963871,141.536163 34.922115,143.238541 34.880356,144.940918 
z"/>
<path fill="#3D3D53" opacity="1.000000" stroke="none" 
	d="
M16.885307,115.056595 
	C16.915695,116.767235 16.946083,118.477859 16.906887,120.611053 
	C15.202198,121.033623 13.567092,121.033623 11.400242,121.033623 
	C11.223219,119.138947 11.076651,117.570229 10.859099,115.595642 
	C10.788117,115.189781 10.947212,115.044968 11.437373,115.013474 
	C13.580125,115.006851 15.232717,115.031723 16.885307,115.056595 
z"/>
<path fill="#333346" opacity="1.000000" stroke="none" 
	d="
M40.963234,133.013779 
	C42.697842,133.016403 44.432449,133.019012 46.594631,133.093292 
	C47.414738,136.867264 46.902954,139.807007 41.548882,139.063324 
	C41.059887,139.050827 40.905617,138.905914 40.946663,138.484055 
	C41.012283,136.364700 41.036854,134.667206 41.027882,132.960693 
	C40.994339,132.951660 40.963234,133.013779 40.963234,133.013779 
z"/>
<path fill="#333346" opacity="1.000000" stroke="none" 
	d="
M35.314781,144.957397 
	C34.922115,143.238541 34.963871,141.536163 34.991600,139.415527 
	C34.977573,138.997269 34.984653,139.064529 35.407310,139.036499 
	C37.521851,138.974289 39.213734,138.940094 40.905617,138.905914 
	C40.905617,138.905914 41.059887,139.050827 41.140144,139.121948 
	C41.325905,142.945892 40.729698,146.034607 35.314781,144.957397 
z"/>
<path fill="#E5E5F5" opacity="1.000000" stroke="none" 
	d="
M59.026520,138.975403 
	C57.271473,138.953140 55.493214,138.953140 53.004803,138.953140 
	C53.004803,137.227829 53.004803,135.533920 53.024090,133.396835 
	C53.043377,132.953659 52.997547,133.001358 53.401329,133.004791 
	C55.510654,133.052643 57.216198,133.097031 58.953030,133.561279 
	C58.975311,135.668289 58.966301,137.355438 58.957291,139.042572 
	C58.957291,139.042572 59.003315,138.997665 59.026520,138.975403 
z"/>
<path fill="#333346" opacity="1.000000" stroke="none" 
	d="
M71.314804,144.957397 
	C70.918289,143.231567 70.956200,141.522232 71.399994,139.403687 
	C73.505836,138.964905 75.205795,138.935349 76.905762,138.905792 
	C76.905762,138.905777 77.059959,139.050751 77.140182,139.121887 
	C77.325912,142.945877 76.729675,146.034561 71.314804,144.957397 
z"/>
<path fill="#494C57" opacity="1.000000" stroke="none" 
	d="
M82.969040,37.038670 
	C82.948036,42.856468 82.948036,48.700260 82.948036,54.992355 
	C84.991112,54.992355 86.571564,54.992355 88.600235,54.971893 
	C89.048470,66.754532 89.048470,78.557632 89.048470,90.759384 
	C87.165237,90.851868 85.579643,90.929733 83.111267,91.014404 
	C80.450218,90.986847 78.671936,90.952507 76.935226,90.495178 
	C76.930641,88.370766 76.884483,86.669334 76.903992,84.505859 
	C76.969666,78.454422 76.969666,72.865021 76.969666,66.744919 
	C70.591278,66.744919 64.871422,66.744919 59.226948,66.744919 
	C59.037106,64.584389 58.895988,62.978325 58.711212,60.875450 
	C50.701035,60.875450 42.961040,60.875450 35.306580,60.875450 
	C35.031036,58.597458 34.820782,56.859207 34.621334,55.210335 
	C32.578869,55.033665 30.960932,54.893715 28.933977,54.718388 
	C28.933977,52.669209 28.933977,50.867641 28.962994,49.037033 
	C28.992012,49.007996 29.050032,48.949905 29.514793,48.965408 
	C39.471329,48.987274 48.966232,48.853573 58.453403,49.065651 
	C62.519669,49.156548 65.929016,49.097385 65.289795,43.321404 
	C70.882149,43.878338 71.385651,40.700985 71.060524,36.517887 
	C70.764580,32.710148 70.979759,28.862680 70.993141,25.008404 
	C71.016647,24.984079 71.064117,24.935879 71.490585,24.962929 
	C73.628906,25.006975 75.340759,25.023973 77.052612,25.040972 
	C77.052612,25.040972 76.964493,25.035467 76.979034,25.457365 
	C76.993584,29.539114 76.993584,33.198967 76.993584,37.040939 
	C79.488068,37.040939 81.270294,37.040939 83.052528,37.040939 
	C83.052528,37.040939 82.990044,37.064659 82.969040,37.038670 
z"/>
<path fill="#4C4F67" opacity="1.000000" stroke="none" 
	d="
M76.893661,90.918159 
	C78.671936,90.952507 80.450218,90.986847 82.673103,91.035095 
	C83.069260,92.743988 83.020805,94.438965 82.488464,96.561287 
	C80.336899,96.992981 78.669212,96.997330 77.000984,96.567841 
	C76.986847,94.393898 76.973244,92.653801 76.945236,90.939880 
	C76.930817,90.966064 76.893661,90.918159 76.893661,90.918159 
z"/>
<path fill="#61637A" opacity="1.000000" stroke="none" 
	d="
M77.001518,97.001678 
	C78.669212,96.997330 80.336899,96.992981 82.420341,96.980026 
	C82.905037,98.699440 82.973991,100.427444 83.128090,102.578362 
	C83.213242,103.001274 83.020828,103.063805 82.505966,103.035309 
	C80.329597,103.014229 78.668091,103.021645 77.004288,102.597160 
	C77.001846,100.443985 77.001701,98.722702 77.000778,97.000717 
	C77.000000,97.000000 77.001518,97.001678 77.001518,97.001678 
z"/>
<path fill="#494C57" opacity="1.000000" stroke="none" 
	d="
M10.970808,37.420235 
	C12.669373,36.960758 14.389288,36.972267 16.546898,37.382397 
	C16.207642,42.397675 18.594667,43.608372 22.630554,42.996067 
	C27.280619,42.290585 29.982100,43.652802 29.050032,48.949905 
	C29.050032,48.949905 28.992012,49.007996 28.524193,49.010208 
	C26.475771,49.086487 24.895166,49.160553 22.934599,49.252426 
	C22.934599,55.377510 22.934599,61.130833 22.505951,66.929008 
	C20.486034,67.068726 18.894768,67.163582 17.164320,67.266739 
	C17.164320,69.444397 17.164320,71.234879 17.098028,73.440079 
	C17.032238,75.534363 17.032738,77.213928 17.023771,79.360275 
	C17.017136,83.512276 17.019966,87.197510 16.585850,90.917130 
	C14.393402,90.984055 12.637904,91.016579 10.882405,91.049103 
	C9.081051,91.049103 7.279697,91.049103 4.992164,91.049103 
	C4.992164,79.094269 4.992164,67.493271 4.970798,55.420792 
	C6.742524,54.949318 8.535616,54.949318 10.992159,54.949318 
	C10.992159,49.202641 10.992159,43.546928 10.970808,37.420235 
z"/>
<path fill="#4C4F67" opacity="1.000000" stroke="none" 
	d="
M10.931314,91.470261 
	C12.637904,91.016579 14.393402,90.984055 16.608154,90.966026 
	C17.067408,90.980522 17.057732,91.086395 17.035400,91.502708 
	C17.042379,93.585861 17.071693,95.252701 16.676600,96.942604 
	C14.556103,96.967651 12.860014,96.969635 11.163925,96.971619 
	C11.102691,95.278214 11.041456,93.584816 10.931314,91.470261 
z"/>
<path fill="#61637A" opacity="1.000000" stroke="none" 
	d="
M11.098689,97.387482 
	C12.860014,96.969635 14.556103,96.967651 16.651365,96.961380 
	C17.050539,96.957085 17.046936,96.896698 17.032345,97.334404 
	C17.010229,99.516342 17.002707,101.260582 16.997866,103.002136 
	C17.000547,102.999458 17.006598,102.993393 16.576557,102.995773 
	C14.435485,103.112869 12.724453,103.227592 11.013421,103.342316 
	C11.013421,103.342316 10.926849,103.100220 10.945398,102.973007 
	C10.987117,101.164970 11.010285,99.484146 11.098689,97.387482 
z"/>
<path fill="#F5A495" opacity="1.000000" stroke="none" 
	d="
M88.954865,114.682175 
	C87.134964,115.022545 85.332962,114.929169 83.028061,114.809738 
	C83.028061,113.034424 83.028061,111.422958 83.088058,109.375687 
	C87.021729,108.589424 89.988647,109.233902 88.954865,114.682175 
z"/>
<path fill="#3D3D53" opacity="1.000000" stroke="none" 
	d="
M77.006584,103.029060 
	C78.668091,103.021645 80.329597,103.014229 82.406242,103.018341 
	C82.872307,104.751747 82.923233,106.473618 82.916466,108.624969 
	C81.178970,109.038727 79.499176,109.023010 77.400543,109.054611 
	C76.981705,109.101913 76.896759,109.116562 76.928253,108.679993 
	C76.983742,106.496727 77.007751,104.750046 77.018097,103.000221 
	C77.004440,102.997086 77.006584,103.029060 77.006584,103.029060 
z"/>
<path fill="#4C576E" opacity="1.000000" stroke="none" 
	d="
M29.514793,48.965408 
	C29.982100,43.652802 27.280619,42.290585 22.630554,42.996067 
	C18.594667,43.608372 16.207642,42.397675 16.974417,37.338997 
	C16.985762,35.218845 17.007284,33.540722 17.515472,31.438335 
	C19.574821,31.142328 21.147507,31.270578 22.922716,31.415346 
	C22.302889,36.317635 24.587593,37.337967 28.447210,37.059727 
	C32.250694,36.785542 36.104454,36.786991 39.908691,37.055950 
	C44.290482,37.365746 48.023399,37.216011 47.542046,31.162010 
	C52.054821,31.621284 53.512794,29.616684 53.046261,25.639807 
	C52.796356,23.509577 53.022472,21.323507 53.033772,19.162636 
	C56.722988,19.118114 60.412201,19.073595 64.553940,19.514732 
	C64.065636,25.148085 67.341400,25.299242 70.969635,25.032726 
	C70.979759,28.862680 70.764580,32.710148 71.060524,36.517887 
	C71.385651,40.700985 70.882149,43.878338 65.289795,43.321404 
	C65.929016,49.097385 62.519669,49.156548 58.453403,49.065651 
	C48.966232,48.853573 39.471329,48.987274 29.514793,48.965408 
z"/>
<path fill="#59738E" opacity="1.000000" stroke="none" 
	d="
M52.566730,19.098703 
	C53.022472,21.323507 52.796356,23.509577 53.046261,25.639807 
	C53.512794,29.616684 52.054821,31.621284 47.542046,31.162010 
	C48.023399,37.216011 44.290482,37.365746 39.908691,37.055950 
	C36.104454,36.786991 32.250694,36.785542 28.447210,37.059727 
	C24.587593,37.337967 22.302889,36.317635 22.922716,31.415346 
	C21.147507,31.270578 19.574821,31.142328 17.582378,31.023994 
	C17.105562,29.299089 17.048504,27.564268 16.976309,25.395317 
	C18.707104,24.961187 20.453035,24.961187 22.991329,24.961187 
	C22.991329,23.161882 22.991329,21.499401 22.976246,19.399078 
	C32.674007,18.985748 42.386848,19.010260 52.566730,19.098703 
z"/>
<path fill="#494C57" opacity="1.000000" stroke="none" 
	d="
M70.993141,25.008404 
	C67.341400,25.299242 64.065636,25.148085 65.010666,19.583122 
	C66.722656,19.113337 68.430443,19.060818 70.562698,19.030195 
	C70.987160,19.052094 70.935242,19.009907 70.964371,19.406570 
	C71.017044,21.514116 71.040581,23.224998 71.064117,24.935879 
	C71.064117,24.935879 71.016647,24.984079 70.993141,25.008404 
z"/>
<path fill="#E5E5F5" opacity="1.000000" stroke="none" 
	d="
M83.030045,36.579571 
	C81.270294,37.040939 79.488068,37.040939 76.993584,37.040939 
	C76.993584,33.198967 76.993584,29.539114 76.976379,25.413300 
	C78.657288,24.969828 80.355400,24.992317 82.475235,25.059067 
	C82.933823,28.774952 82.970688,32.446575 83.030045,36.579571 
z"/>
<path fill="#E5E5F5" opacity="1.000000" stroke="none" 
	d="
M71.490585,24.962929 
	C71.040581,23.224998 71.017044,21.514116 70.976273,19.375309 
	C72.657272,18.969847 74.355515,18.992311 76.475357,19.059052 
	C76.933830,20.799673 76.970718,22.496017 77.030106,24.616669 
	C75.340759,25.023973 73.628906,25.006975 71.490585,24.962929 
z"/>
<path fill="#E5E5F5" opacity="1.000000" stroke="none" 
	d="
M76.946869,138.444809 
	C75.205795,138.935349 73.505836,138.964905 71.380470,138.976013 
	C70.955070,138.957581 70.998856,138.999741 71.003731,138.585022 
	C70.954170,136.427719 70.899742,134.685165 70.912521,132.524414 
	C70.932228,130.415176 70.884712,128.724121 70.904816,126.607819 
	C70.926941,124.464119 70.881447,122.745659 70.901390,120.598373 
	C70.923195,118.437340 70.879570,116.705154 70.904190,114.554543 
	C71.027870,112.444557 71.083305,110.752991 71.550095,109.036880 
	C73.606560,109.047081 75.251656,109.081825 76.896759,109.116562 
	C76.896759,109.116562 76.981705,109.101913 76.979767,109.058868 
	C76.981216,118.671822 76.984596,128.327820 76.946869,138.444809 
z"/>
<path fill="#61637A" opacity="1.000000" stroke="none" 
	d="
M23.164061,121.027046 
	C23.120380,119.295021 23.076700,117.563004 23.517103,115.410072 
	C25.680309,114.976509 27.359434,114.963844 29.496351,114.968018 
	C31.736345,114.989227 33.550873,115.213005 35.294582,114.956093 
	C40.183125,114.235855 41.799706,116.379890 40.511395,120.972443 
	C38.414951,121.009483 36.738689,121.033920 34.600338,121.041367 
	C30.480188,121.025261 26.822124,121.026154 23.164061,121.027046 
z"/>
<path fill="#4C4F67" opacity="1.000000" stroke="none" 
	d="
M23.095852,121.451935 
	C26.822124,121.026154 30.480188,121.025261 34.578514,121.463821 
	C35.017029,123.606743 35.015282,125.310211 34.554371,127.009583 
	C30.451086,127.014572 26.806967,127.023659 23.162846,127.032745 
	C23.117779,125.314110 23.072710,123.595474 23.095852,121.451935 
z"/>
<path fill="#333346" opacity="1.000000" stroke="none" 
	d="
M23.092106,127.450424 
	C26.806967,127.023659 30.451086,127.014572 34.546940,127.002098 
	C34.998672,126.998711 34.985348,126.985352 34.990334,127.398338 
	C34.953808,129.443619 34.912296,131.075912 34.429634,132.801788 
	C30.377121,132.910645 26.765764,132.925903 23.154406,132.941162 
	C23.110060,131.250137 23.065714,129.559128 23.092106,127.450424 
z"/>
<path fill="#61637A" opacity="1.000000" stroke="none" 
	d="
M23.092939,133.373291 
	C26.765764,132.925903 30.377121,132.910645 34.495819,132.902252 
	C35.003155,132.909103 35.089027,133.132126 35.053375,133.553726 
	C35.006699,135.671722 34.995674,137.368134 34.984653,139.064529 
	C34.984653,139.064529 34.977573,138.997269 35.010288,138.989624 
	C31.323782,138.990860 27.604563,138.999725 23.421335,139.025604 
	C22.982044,137.296860 23.006760,135.551132 23.092939,133.373291 
z"/>
<path fill="#4C4F67" opacity="1.000000" stroke="none" 
	d="
M29.038559,114.951180 
	C27.359434,114.963844 25.680309,114.976509 23.582613,114.980988 
	C23.101896,113.283897 23.039753,111.594994 23.036819,109.460411 
	C23.096033,109.014732 23.306828,108.910057 23.707016,108.939163 
	C25.739832,108.977158 27.372459,108.986053 29.004044,109.421463 
	C29.014851,111.549042 29.026705,113.250114 29.038559,114.951180 
z"/>
<path fill="#FFC4A7" opacity="1.000000" stroke="none" 
	d="
M16.923283,114.642479 
	C15.232717,115.031723 13.580125,115.006851 11.515310,114.939331 
	C11.070732,113.242645 11.038379,111.588608 11.443408,109.475830 
	C13.572686,108.953415 15.264582,108.889740 16.939255,108.929169 
	C16.922035,109.032265 17.007063,109.223244 17.007063,109.223244 
	C16.991795,110.891617 16.976526,112.559990 16.923283,114.642479 
z"/>
<path fill="#61637A" opacity="1.000000" stroke="none" 
	d="
M22.981365,109.041168 
	C21.186625,109.060112 19.506556,109.052612 17.416775,109.134178 
	C17.007063,109.223244 16.922035,109.032265 16.956089,108.513016 
	C16.995628,106.326973 17.001114,104.660179 17.006599,102.993393 
	C17.006598,102.993393 17.000547,102.999458 17.420143,103.000511 
	C19.527689,103.005272 21.215639,103.008972 22.938669,103.434845 
	C23.084776,105.541367 23.195801,107.225716 23.306828,108.910057 
	C23.306828,108.910057 23.096033,109.014732 22.981365,109.041168 
z"/>
<path fill="#333346" opacity="1.000000" stroke="none" 
	d="
M16.576557,102.995773 
	C17.001114,104.660179 16.995628,106.326973 16.973310,108.409912 
	C15.264582,108.889740 13.572686,108.953415 11.457703,109.062202 
	C11.025291,107.456116 11.015970,105.804924 11.010035,103.748016 
	C12.724453,103.227592 14.435485,103.112869 16.576557,102.995773 
z"/>
<path fill="#333346" opacity="1.000000" stroke="none" 
	d="
M35.006104,127.006195 
	C35.015282,125.310211 35.017029,123.606743 35.040596,121.480820 
	C36.738689,121.033920 38.414951,121.009483 40.948849,120.986191 
	C43.546562,120.983963 45.286648,120.980606 47.454857,120.985268 
	C49.604794,120.971191 51.326611,120.949097 53.468464,120.950211 
	C55.571423,121.001221 57.254337,121.029015 58.958935,121.479889 
	C58.991573,123.606514 59.002529,125.310059 58.575516,127.009491 
	C56.383488,127.025269 54.629436,127.045151 52.875381,127.065041 
	C49.258568,127.046173 45.641754,127.027306 41.136726,127.018318 
	C38.494122,127.013924 36.739735,126.999634 34.985348,126.985352 
	C34.985348,126.985352 34.998672,126.998711 35.006104,127.006195 
z"/>
<path fill="#4C4F67" opacity="1.000000" stroke="none" 
	d="
M34.990334,127.398331 
	C36.739735,126.999634 38.494122,127.013924 40.686657,127.046562 
	C41.081112,128.765472 41.037415,130.466019 40.978477,132.590179 
	C40.963234,133.013779 40.994339,132.951660 40.600498,132.973267 
	C38.500782,133.040619 36.794903,133.086365 35.089027,133.132126 
	C35.089027,133.132126 35.003155,132.909103 34.936970,132.808655 
	C34.912296,131.075912 34.953808,129.443619 34.990334,127.398331 
z"/>
<path fill="#4C4F67" opacity="1.000000" stroke="none" 
	d="
M52.927246,127.489288 
	C54.629436,127.045151 56.383488,127.025269 58.568024,127.001938 
	C58.998501,126.998497 58.985348,126.985352 58.990334,127.397522 
	C59.033997,129.438248 59.072674,131.066818 59.053009,132.802231 
	C58.994663,132.909088 58.921741,133.141418 58.921741,133.141418 
	C57.216198,133.097031 55.510654,133.052643 53.378220,133.028473 
	C52.960587,131.336975 52.969849,129.625259 52.927246,127.489288 
z"/>
<path fill="#61637A" opacity="1.000000" stroke="none" 
	d="
M70.845314,132.942596 
	C70.899742,134.685165 70.954170,136.427719 71.025459,138.606262 
	C67.323135,139.031021 63.603958,139.019821 59.421036,139.025589 
	C58.966301,137.355438 58.975311,135.668289 58.953030,133.561279 
	C58.921741,133.141418 58.994663,132.909088 59.493263,132.905289 
	C63.609676,132.915192 67.227493,132.928894 70.845314,132.942596 
z"/>
<path fill="#E5E5F5" opacity="1.000000" stroke="none" 
	d="
M35.053375,133.553726 
	C36.794903,133.086365 38.500782,133.040619 40.634041,132.982285 
	C41.036854,134.667206 41.012283,136.364700 40.946663,138.484055 
	C39.213734,138.940094 37.521851,138.974289 35.407310,139.036499 
	C34.995674,137.368134 35.006699,135.671722 35.053375,133.553726 
z"/>
<path fill="#FFC4A7" opacity="1.000000" stroke="none" 
	d="
M17.033237,78.893494 
	C17.032738,77.213928 17.032238,75.534363 17.516834,73.432602 
	C23.333536,73.937286 23.326694,70.565819 22.934599,66.884155 
	C22.934599,61.130833 22.934599,55.377510 22.934599,49.252426 
	C24.895166,49.160553 26.475771,49.086487 28.495174,49.039246 
	C28.933977,50.867641 28.933977,52.669209 28.933977,54.718388 
	C30.960932,54.893715 32.578869,55.033665 34.621334,55.210335 
	C34.820782,56.859207 35.031036,58.597458 35.306580,60.875450 
	C42.961040,60.875450 50.701035,60.875450 58.711212,60.875450 
	C58.895988,62.978325 59.037106,64.584389 59.226948,66.744919 
	C64.871422,66.744919 70.591278,66.744919 76.969666,66.744919 
	C76.969666,72.865021 76.969666,78.454422 76.484024,84.515480 
	C74.311821,84.972481 72.625267,84.957825 70.964386,84.485809 
	C70.990074,80.448151 70.990074,76.867836 70.990074,73.320335 
	C68.712402,73.320335 67.000816,73.320335 65.090546,73.320335 
	C65.090546,77.403961 65.090546,81.176003 65.016571,84.925522 
	C64.942589,84.903008 64.813713,84.988533 64.362854,84.993179 
	C56.260567,84.980164 48.609127,84.962494 40.975418,84.486664 
	C40.993145,80.448746 40.993145,76.868988 40.993145,73.318817 
	C38.714294,73.318817 37.002892,73.318817 35.061054,73.318817 
	C35.061054,77.401489 35.061054,81.172424 34.629150,84.962448 
	C32.465336,84.987350 30.733421,84.993149 29.000931,84.569000 
	C29.969233,78.822594 26.699162,78.614883 22.466743,79.037598 
	C20.377377,78.971909 18.705307,78.932701 17.033237,78.893494 
z"/>
<path fill="#F58C79" opacity="1.000000" stroke="none" 
	d="
M70.938705,84.943176 
	C72.625267,84.957825 74.311821,84.972481 76.418350,84.977524 
	C76.884483,86.669334 76.930641,88.370766 76.935226,90.495178 
	C76.893661,90.918159 76.930817,90.966064 76.488449,90.974258 
	C72.359543,90.933044 68.673004,90.883629 64.990402,90.417511 
	C64.934135,88.330048 64.873924,86.659294 64.813713,84.988533 
	C64.813713,84.988533 64.942589,84.903008 65.433167,84.946274 
	C67.595398,84.974083 69.267052,84.958633 70.938705,84.943176 
z"/>
<path fill="#3D3D53" opacity="1.000000" stroke="none" 
	d="
M64.986465,90.834213 
	C68.673004,90.883629 72.359543,90.933044 76.502869,90.948074 
	C76.973244,92.653801 76.986847,94.393898 77.000984,96.567841 
	C77.001518,97.001678 77.000000,97.000000 76.572388,97.000198 
	C74.432358,97.000473 72.719933,97.000549 70.577858,97.000412 
	C68.429634,97.000343 66.711067,97.000481 64.556305,97.000435 
	C62.372173,97.019707 60.624222,97.039162 58.458183,97.034462 
	C56.362240,97.059814 54.684383,97.109322 52.548409,97.101547 
	C48.391354,97.082458 44.692417,97.120651 40.577171,97.093338 
	C38.481842,97.038086 36.802830,97.048325 34.686466,97.041809 
	C32.501919,97.016907 30.754717,97.008759 28.590992,97.000450 
	C26.529049,97.026062 24.883629,97.051834 23.150627,97.032547 
	C23.063046,96.987495 22.872280,96.938377 22.923237,96.514572 
	C22.995119,94.381523 23.016048,92.672272 23.018496,90.981506 
	C23.000013,90.999992 22.963093,91.037003 23.393860,91.022301 
	C25.545216,90.949806 27.265806,90.892006 29.444149,90.898773 
	C33.606232,90.920311 37.310566,90.877281 41.478352,90.900635 
	C49.623360,90.922745 57.304913,90.878479 64.986465,90.834213 
z"/>
<path fill="#4C4F67" opacity="1.000000" stroke="none" 
	d="
M71.007507,97.000618 
	C72.719933,97.000549 74.432358,97.000473 76.573174,97.000916 
	C77.001701,98.722702 77.001846,100.443985 77.004288,102.597160 
	C77.006584,103.029060 77.004440,102.997086 76.588501,102.999069 
	C74.460915,103.010155 72.749275,103.019241 71.024429,102.596954 
	C71.009987,100.443924 71.008743,98.722267 71.007507,97.000618 
z"/>
<path fill="#3D3D53" opacity="1.000000" stroke="none" 
	d="
M17.023771,79.360275 
	C18.705307,78.932701 20.377377,78.971909 22.513008,79.492096 
	C22.972076,83.661057 22.967585,87.349030 22.963093,91.037003 
	C22.963093,91.037003 23.000013,90.999992 22.591024,90.996201 
	C20.473934,91.023735 18.765833,91.055069 17.057732,91.086395 
	C17.057732,91.086395 17.067408,90.980522 17.045101,90.931625 
	C17.019966,87.197510 17.017136,83.512276 17.023771,79.360275 
z"/>
<path fill="#F5A495" opacity="1.000000" stroke="none" 
	d="
M22.505951,66.929008 
	C23.326694,70.565819 23.333536,73.937286 17.583126,73.017876 
	C17.164320,71.234879 17.164320,69.444397 17.164320,67.266739 
	C18.894768,67.163582 20.486034,67.068726 22.505951,66.929008 
z"/>
<path fill="#F5A495" opacity="1.000000" stroke="none" 
	d="
M17.035400,91.502708 
	C18.765833,91.055069 20.473934,91.023735 22.609507,90.977707 
	C23.016048,92.672272 22.995119,94.381523 22.507900,96.538277 
	C20.376717,96.956085 18.711826,96.926392 17.046936,96.896698 
	C17.046936,96.896698 17.050539,96.957085 17.075773,96.938309 
	C17.071693,95.252701 17.042379,93.585861 17.035400,91.502708 
z"/>
<path fill="#4C4F67" opacity="1.000000" stroke="none" 
	d="
M17.032345,97.334396 
	C18.711826,96.926392 20.376717,96.956085 22.456944,96.962082 
	C22.872280,96.938377 23.063046,96.987495 23.069700,97.447815 
	C23.082653,99.602905 23.088951,101.297668 23.047461,102.998703 
	C22.999674,103.004967 22.903589,103.012672 22.903589,103.012672 
	C21.215639,103.008972 19.527689,103.005272 17.417461,103.003189 
	C17.002707,101.260582 17.010229,99.516342 17.032345,97.334396 
z"/>
<path fill="#61637A" opacity="1.000000" stroke="none" 
	d="
M71.037636,103.028336 
	C72.749275,103.019241 74.460915,103.010155 76.602158,103.002213 
	C77.007751,104.750046 76.983742,106.496727 76.928253,108.679993 
	C75.251656,109.081825 73.606560,109.047081 71.434013,109.012802 
	C70.906570,109.013268 70.693077,108.910118 70.795044,108.497917 
	C70.921616,106.384377 70.946236,104.683044 70.985542,102.996033 
	C71.000229,103.010361 71.037636,103.028336 71.037636,103.028336 
z"/>
<path fill="#61637A" opacity="1.000000" stroke="none" 
	d="
M58.937256,121.056816 
	C57.254337,121.029015 55.571423,121.001221 53.451668,120.531654 
	C53.022472,118.406311 53.030117,116.722733 53.495651,115.026306 
	C57.622833,114.992699 61.292130,114.971939 65.381882,114.965546 
	C67.480209,114.977600 69.158073,114.975281 70.835945,114.972961 
	C70.879570,116.705154 70.923195,118.437340 70.451385,120.590210 
	C66.269707,121.026192 62.603481,121.041504 58.937256,121.056816 
z"/>
<path fill="#4C4F67" opacity="1.000000" stroke="none" 
	d="
M58.958935,121.479889 
	C62.603481,121.041504 66.269707,121.026192 70.385941,121.019043 
	C70.881447,122.745659 70.926941,124.464119 70.454819,126.597839 
	C66.286583,127.003853 62.635963,126.994598 58.985348,126.985352 
	C58.985348,126.985352 58.998501,126.998497 59.005997,127.006050 
	C59.002529,125.310059 58.991573,123.606514 58.958935,121.479889 
z"/>
<path fill="#333346" opacity="1.000000" stroke="none" 
	d="
M58.990334,127.397522 
	C62.635963,126.994598 66.286583,127.003853 70.387192,127.023087 
	C70.884712,128.724121 70.932228,130.415176 70.912521,132.524414 
	C67.227493,132.928894 63.609676,132.915192 59.551605,132.798431 
	C59.072674,131.066818 59.033997,129.438248 58.990334,127.397522 
z"/>
<path fill="#4C4F67" opacity="1.000000" stroke="none" 
	d="
M70.904190,114.554543 
	C69.158073,114.975281 67.480209,114.977600 65.394981,114.542313 
	C64.990044,112.401443 64.992462,110.698181 65.406815,108.996185 
	C67.443527,108.968353 69.068306,108.939240 70.693077,108.910126 
	C70.693077,108.910118 70.906570,109.013268 71.022659,109.037346 
	C71.083305,110.752991 71.027870,112.444557 70.904190,114.554543 
z"/>
<path fill="#3D3D53" opacity="1.000000" stroke="none" 
	d="
M64.994888,108.994911 
	C64.992462,110.698181 64.990044,112.401443 64.974525,114.527946 
	C61.292130,114.971939 57.622833,114.992699 53.063297,115.012527 
	C47.010162,114.026161 46.595062,117.136467 47.026730,120.977242 
	C45.286648,120.980606 43.546562,120.983963 41.369026,120.973579 
	C41.799706,116.379890 40.183125,114.235855 35.294582,114.956093 
	C33.550873,115.213005 31.736345,114.989227 29.496353,114.968018 
	C29.026705,113.250114 29.014851,111.549042 29.000629,109.424866 
	C28.998259,109.001747 28.991179,109.008827 29.420937,109.006401 
	C35.020432,110.001480 35.370632,106.828278 35.027756,103.021332 
	C35.044476,103.001816 35.022312,102.955414 35.440918,102.973724 
	C37.532665,102.974434 39.205811,102.956825 40.934090,103.004578 
	C40.989223,103.069946 41.127869,103.170082 41.081612,103.590347 
	C41.132038,105.557877 41.228714,107.105133 41.328171,108.696808 
	C45.388554,108.696808 48.903648,108.696808 52.872089,108.696808 
	C52.872089,106.656616 52.872089,104.913406 52.941418,103.120094 
	C53.010746,103.069992 53.121037,102.939209 53.538021,102.964218 
	C55.629242,102.977959 57.303474,102.966682 58.966618,102.978607 
	C58.955524,103.001808 58.988960,103.040840 58.992405,103.467331 
	C57.993851,109.132927 61.272945,109.339371 65.005280,109.005280 
	C65.001724,109.001724 64.994888,108.994911 64.994888,108.994911 
z"/>
<path fill="#3D3D53" opacity="1.000000" stroke="none" 
	d="
M23.707016,108.939163 
	C23.195801,107.225716 23.084776,105.541367 22.938669,103.434845 
	C22.903589,103.012672 22.999674,103.004967 23.458195,103.001030 
	C25.578966,102.995026 27.241213,102.992966 28.948868,102.998154 
	C28.994276,103.005409 29.085802,103.014389 29.054428,103.440948 
	C29.012426,105.581284 29.001802,107.295052 28.991179,109.008827 
	C28.991179,109.008827 28.998259,109.001747 29.001673,108.998344 
	C27.372459,108.986053 25.739832,108.977158 23.707016,108.939163 
z"/>
<path fill="#4C4F67" opacity="1.000000" stroke="none" 
	d="
M47.454857,120.985268 
	C46.595062,117.136467 47.010162,114.026161 52.605408,115.025368 
	C53.030117,116.722733 53.022472,118.406311 53.031624,120.508438 
	C51.326611,120.949097 49.604794,120.971191 47.454857,120.985268 
z"/>
<path fill="#F5A495" opacity="1.000000" stroke="none" 
	d="
M64.990402,90.417511 
	C57.304913,90.878479 49.623360,90.922745 41.473976,90.477356 
	C40.965633,88.289505 40.925121,86.591324 40.914017,84.890366 
	C40.943420,84.887589 40.957691,84.944824 40.957691,84.944824 
	C48.609127,84.962494 56.260567,84.980164 64.362854,84.993179 
	C64.873924,86.659294 64.934135,88.330048 64.990402,90.417511 
z"/>
<path fill="#333346" opacity="1.000000" stroke="none" 
	d="
M35.061054,84.943352 
	C35.061054,81.172424 35.061054,77.401489 35.061054,73.318817 
	C37.002892,73.318817 38.714294,73.318817 40.993145,73.318817 
	C40.993145,76.868988 40.993145,80.448746 40.975418,84.486664 
	C40.957691,84.944824 40.943420,84.887589 40.502243,84.932922 
	C38.394398,84.966629 36.727726,84.954987 35.061054,84.943352 
z"/>
<path fill="#F58C79" opacity="1.000000" stroke="none" 
	d="
M34.629150,84.962448 
	C36.727726,84.954987 38.394398,84.966629 40.472839,84.935699 
	C40.925121,86.591324 40.965633,88.289505 41.010521,90.410973 
	C37.310566,90.877281 33.606232,90.920311 29.448097,90.482986 
	C28.996698,88.334732 28.999104,86.666840 29.001509,84.998947 
	C30.733421,84.993149 32.465336,84.987350 34.629150,84.962448 
z"/>
<path fill="#F5A495" opacity="1.000000" stroke="none" 
	d="
M29.000931,84.569000 
	C28.999104,86.666840 28.996698,88.334732 28.990343,90.418419 
	C27.265806,90.892006 25.545216,90.949806 23.393860,91.022301 
	C22.967585,87.349030 22.972076,83.661057 22.930304,79.518578 
	C26.699162,78.614883 29.969233,78.822594 29.000931,84.569000 
z"/>
<path fill="#333346" opacity="1.000000" stroke="none" 
	d="
M70.964386,84.485817 
	C69.267052,84.958633 67.595398,84.974083 65.507141,84.968788 
	C65.090546,81.176003 65.090546,77.403961 65.090546,73.320335 
	C67.000816,73.320335 68.712402,73.320335 70.990074,73.320335 
	C70.990074,76.867836 70.990074,80.448151 70.964386,84.485817 
z"/>
<path fill="#D42C2C" opacity="1.000000" stroke="none" 
	d="
M40.993481,97.158844 
	C44.692417,97.120651 48.391354,97.082458 52.546257,97.512726 
	C53.041832,99.633865 53.081432,101.286537 53.121037,102.939209 
	C53.121037,102.939209 53.010746,103.069992 52.496723,103.060684 
	C48.364422,103.090950 44.746147,103.130516 41.127869,103.170082 
	C41.127869,103.170082 40.989223,103.069946 40.983284,102.592804 
	C40.982723,100.463394 40.988102,98.811119 40.993481,97.158844 
z"/>
<path fill="#D3CADC" opacity="1.000000" stroke="none" 
	d="
M40.577171,97.093338 
	C40.988102,98.811119 40.982723,100.463394 40.928150,102.527443 
	C39.205811,102.956825 37.532665,102.974434 35.431988,102.552650 
	C35.044239,100.428360 35.084026,98.743462 35.123814,97.058563 
	C36.802830,97.048325 38.481842,97.038086 40.577171,97.093338 
z"/>
<path fill="#333346" opacity="1.000000" stroke="none" 
	d="
M28.903461,102.990898 
	C27.241213,102.992966 25.578966,102.995026 23.505981,102.994766 
	C23.088951,101.297668 23.082653,99.602905 23.157284,97.492874 
	C24.883629,97.051834 26.529049,97.026062 28.588285,97.428467 
	C28.969223,99.568069 28.936342,101.279480 28.903461,102.990898 
z"/>
<path fill="#4C4F67" opacity="1.000000" stroke="none" 
	d="
M28.948868,102.998154 
	C28.936342,101.279480 28.969223,99.568069 29.004810,97.428635 
	C30.754717,97.008759 32.501919,97.016907 34.686466,97.041809 
	C35.084026,98.743462 35.044239,100.428360 35.013382,102.534332 
	C35.022312,102.955414 35.044476,103.001816 34.602474,103.009552 
	C32.468914,103.016327 30.777359,103.015358 29.085802,103.014389 
	C29.085802,103.014389 28.994276,103.005409 28.948868,102.998154 
z"/>
<path fill="#D3CADC" opacity="1.000000" stroke="none" 
	d="
M53.538021,102.964218 
	C53.081432,101.286537 53.041832,99.633865 53.004379,97.570007 
	C54.684383,97.109322 56.362240,97.059814 58.507294,97.453262 
	C58.975563,99.582611 58.976635,101.269005 58.977707,102.955406 
	C57.303474,102.966682 55.629242,102.977959 53.538021,102.964218 
z"/>
<path fill="#4C4F67" opacity="1.000000" stroke="none" 
	d="
M58.966614,102.978607 
	C58.976635,101.269005 58.975563,99.582611 58.925377,97.477417 
	C60.624222,97.039162 62.372173,97.019707 64.559013,97.428360 
	C65.032135,99.567673 65.066376,101.278877 65.054199,102.997581 
	C65.007782,103.005081 64.914200,103.014389 64.494064,103.009338 
	C62.378941,103.016479 60.683949,103.028656 58.988960,103.040840 
	C58.988960,103.040840 58.955524,103.001808 58.966614,102.978607 
z"/>
<path fill="#333346" opacity="1.000000" stroke="none" 
	d="
M65.100616,102.990082 
	C65.066376,101.278877 65.032135,99.567673 64.995193,97.428543 
	C66.711067,97.000481 68.429634,97.000343 70.577858,97.000412 
	C71.008743,98.722267 71.009987,100.443924 71.024429,102.596954 
	C71.037636,103.028336 71.000229,103.010361 70.564987,103.002045 
	C68.453377,102.992508 66.776993,102.991295 65.100616,102.990082 
z"/>
<path fill="#3D3D53" opacity="1.000000" stroke="none" 
	d="
M65.054199,102.997581 
	C66.776993,102.991295 68.453377,102.992508 70.550308,102.987717 
	C70.946236,104.683044 70.921616,106.384377 70.795044,108.497925 
	C69.068306,108.939240 67.443527,108.968353 65.406822,108.996185 
	C64.994888,108.994911 65.001724,109.001724 65.002876,108.576416 
	C64.974083,106.438873 64.944138,104.726631 64.914200,103.014389 
	C64.914200,103.014389 65.007782,103.005081 65.054199,102.997581 
z"/>
<path fill="#9E2628" opacity="1.000000" stroke="none" 
	d="
M41.081612,103.590347 
	C44.746147,103.130516 48.364422,103.090950 52.427395,103.110786 
	C52.872089,104.913406 52.872089,106.656616 52.872089,108.696808 
	C48.903648,108.696808 45.388554,108.696808 41.328171,108.696808 
	C41.228714,107.105133 41.132038,105.557877 41.081612,103.590347 
z"/>
<path fill="#61637A" opacity="1.000000" stroke="none" 
	d="
M29.054428,103.440948 
	C30.777359,103.015358 32.468914,103.016327 34.585754,103.029068 
	C35.370632,106.828278 35.020432,110.001480 29.420937,109.006401 
	C29.001802,107.295052 29.012426,105.581284 29.054428,103.440948 
z"/>
<path fill="#61637A" opacity="1.000000" stroke="none" 
	d="
M64.494064,103.009338 
	C64.944138,104.726631 64.974083,106.438873 65.006424,108.579971 
	C61.272945,109.339371 57.993851,109.132927 58.992405,103.467331 
	C60.683949,103.028656 62.378941,103.016479 64.494064,103.009338 
z"/>
</svg>